<?xml version="1.0" standalone="no"?>
<!DOCTYPE svg PUBLIC "-//W3C//DTD SVG 20010904//EN"
 "http://www.w3.org/TR/2001/REC-SVG-20010904/DTD/svg10.dtd">
<svg version="1.0" xmlns="http://www.w3.org/2000/svg"
 width="340.000000pt" height="340.000000pt" viewBox="0 0 340.000000 340.000000"
 preserveAspectRatio="xMidYMid meet">
<metadata>
Created by potrace 1.11, written by Peter Selinger 2001-2013
</metadata>
<g transform="translate(0.000000,340.000000) scale(0.100000,-0.100000)"
fill="#000000" stroke="none">
<path d="M0 2945 l0 -335 159 0 c87 0 172 5 189 11 28 10 45 29 39 47 -1 4
-69 7 -152 7 l-150 0 -1 123 -1 122 161 -2 161 -3 2 -115 c0 -67 5 -116 11
-118 6 -2 25 10 42 25 60 54 49 164 -20 195 -26 11 -30 18 -30 50 0 28 5 40
22 49 34 18 48 36 58 69 12 40 -5 94 -34 114 -47 30 -48 28 -46 -86 1 -106 1
-108 -22 -109 -13 -1 -87 -2 -164 -3 l-142 -1 2 115 1 115 158 -1 c86 0 157 3
157 7 0 13 -32 40 -57 50 -13 5 -96 9 -184 9 l-159 0 0 -335z"/>
<path d="M1009 3233 c0 -62 0 -594 1 -610 0 -8 15 -13 40 -13 l40 0 0 335 0
335 -40 0 -40 0 -1 -47z"/>
<path d="M1938 2329 c-12 -6 -18 -22 -18 -44 0 -28 -6 -37 -29 -49 -49 -26
-54 -55 -55 -314 -1 -130 2 -244 6 -253 4 -9 17 -15 30 -13 13 1 29 3 36 3 9
1 12 67 12 295 0 324 -4 306 64 306 38 0 28 27 101 -288 44 -192 52 -208 117
-233 18 -7 31 -23 38 -45 22 -67 90 -58 90 11 0 24 6 35 24 43 57 26 60 43 61
314 0 137 -2 253 -6 259 -3 6 -21 9 -40 7 l-34 -3 -5 -295 -5 -295 -46 -3 -46
-3 -42 178 c-24 98 -49 202 -57 232 -16 56 -60 111 -89 111 -9 0 -23 16 -32
38 -21 52 -40 62 -75 41z"/>
<path d="M3081 2327 c-6 -8 -14 -27 -17 -43 -6 -29 -5 -29 38 -26 29 2 48 -1
55 -10 10 -12 83 -282 83 -307 0 -7 -46 -11 -130 -11 -84 0 -130 4 -130 11 0
5 16 73 35 149 19 76 35 144 35 150 0 17 -55 -16 -73 -44 -10 -14 -48 -139
-86 -278 -68 -248 -68 -253 -47 -259 53 -13 63 -2 86 94 13 51 26 96 30 100 4
4 73 9 154 10 l147 2 9 -35 c5 -19 16 -65 26 -102 9 -38 19 -68 23 -69 87 -11
87 -24 10 259 -71 261 -89 301 -139 322 -19 8 -30 21 -34 42 -8 39 -23 58 -46
58 -10 0 -23 -6 -29 -13z"/>
<path d="M310 446 l0 -336 40 0 c25 0 40 5 41 13 1 6 2 70 3 142 l1 130 140 2
c200 3 184 12 184 -105 -1 -196 -3 -182 34 -182 51 0 54 6 52 112 -2 105 -15
139 -61 160 -19 9 -24 19 -24 47 0 30 6 39 30 53 70 40 77 140 14 196 -21 17
-40 30 -43 27 -2 -3 -4 -57 -3 -119 2 -101 0 -114 -15 -118 -15 -3 -265 -3
-298 1 -7 1 -11 46 -11 125 l0 124 158 -2 c87 -1 158 1 158 4 0 4 -12 17 -26
31 -25 23 -31 24 -200 27 l-174 4 0 -336z"/>
<path d="M1301 643 c80 -136 125 -193 154 -193 13 0 15 -26 15 -170 l0 -170
40 0 40 0 0 164 0 165 -36 3 c-33 3 -38 7 -49 43 -6 22 -33 78 -59 125 -26 47
-57 104 -68 128 -21 41 -24 42 -70 42 l-47 0 80 -137z"/>
<path d="M1637 645 c-98 -172 -110 -219 -46 -184 18 9 47 50 176 253 l41 66
-47 0 -47 0 -77 -135z"/>
</g>
</svg>
